<svg width="42" height="42" viewBox="0 0 42 42" fill="none" xmlns="http://www.w3.org/2000/svg">
<path fill-rule="evenodd" clip-rule="evenodd" d="M22.5195 12.4803L26.9213 8.07843C28.2547 6.74509 28.9213 6.07843 29.7498 6.07843C30.5782 6.07843 31.2449 6.74509 32.5782 8.07843L33.9213 9.42157L33.9214 9.42158C35.2547 10.7549 35.9213 11.4216 35.9213 12.25C35.9213 13.0784 35.2547 13.7451 33.9214 15.0784L33.9213 15.0784L29.5575 19.4422C26.6521 17.7498 24.2329 15.3486 22.5195 12.4803ZM21.0653 13.9345L7.85615 27.1436C7.43109 27.5687 7.21856 27.7812 7.07883 28.0423C6.93909 28.3034 6.88015 28.5981 6.76226 29.1876L5.39686 36.0146C5.33034 36.3472 5.29708 36.5135 5.39168 36.6081C5.48629 36.7027 5.6526 36.6694 5.98521 36.6029L12.8122 35.2375C13.4016 35.1196 13.6964 35.0607 13.9575 34.9209C14.2186 34.7812 14.4311 34.5687 14.8562 34.1436L28.0995 20.9002C25.2449 19.1437 22.84 16.7556 21.0653 13.9345Z" fill="#898B8E"/>
</svg>
