<svg xmlns="http://www.w3.org/2000/svg" width="42" height="42" viewBox="0 0 42 42" fill="none">
  <path d="M31.2204 32.3214C34.7587 29.0191 36.3312 23.5152 35.3877 18.2471H21.3135V24.0656H29.3334C29.0189 25.9526 27.9181 27.5251 26.3456 28.5473L31.2204 32.3214Z" fill="#4285F4"/>
  <path d="M7.94727 27.6824C8.07611 27.936 8.21195 28.1858 8.3548 28.4318C8.49775 28.6779 8.64748 28.9196 8.804 29.1572C8.96063 29.3947 9.1237 29.6276 9.29345 29.8559C9.4632 30.0843 9.63919 30.3075 9.82163 30.5259C10.004 30.7442 10.1923 30.9573 10.3868 31.165C10.5811 31.3727 10.7813 31.5747 10.9871 31.7712C11.193 31.9675 11.4042 32.1579 11.6207 32.3424C11.8373 32.5268 12.0589 32.705 12.2856 32.8769C12.5122 33.0489 12.7436 33.2142 12.9796 33.3731C13.2156 33.5319 13.4559 33.6839 13.7006 33.8292C13.9452 33.9744 14.1937 34.1127 14.4461 34.2439C14.6985 34.375 14.9545 34.4991 15.2139 34.6158C15.4734 34.7325 15.7359 34.8419 16.0015 34.9437C16.2671 35.0456 16.5354 35.1399 16.8063 35.2266C17.0772 35.3134 17.3505 35.3924 17.6259 35.4637C17.9013 35.535 18.1784 35.5984 18.4574 35.6541C18.7365 35.7096 19.0168 35.7573 19.2985 35.7971C19.5802 35.8368 19.8628 35.8687 20.1463 35.8924C20.4298 35.9161 20.7137 35.932 20.9981 35.9397C21.2825 35.9474 21.5669 35.9471 21.8512 35.9388C22.1356 35.9305 22.4194 35.9141 22.7029 35.8897C22.9863 35.8653 23.2688 35.8329 23.5505 35.7925C23.8321 35.7522 24.1123 35.7038 24.3913 35.6476C24.6702 35.5914 24.9472 35.5274 25.2224 35.4556C25.4977 35.3837 25.7707 35.3041 26.0415 35.2168C26.3122 35.1295 26.5803 35.0346 26.8457 34.9321C27.1111 34.8296 27.3734 34.7198 27.6326 34.6024C27.8918 34.4852 28.1474 34.3607 28.3995 34.2289C28.6517 34.0972 28.8999 33.9584 29.1443 33.8126C29.3885 33.6668 29.6285 33.5143 29.8642 33.355C30.0999 33.1957 30.3309 33.0297 30.5572 32.8574C30.7835 32.685 31.0047 32.5063 31.2208 32.3214L26.346 28.5473C22.1788 31.2992 15.2596 30.2771 12.9008 23.8297L7.94727 27.6824Z" fill="#34A853"/>
  <path d="M12.9009 23.8297C12.2719 21.864 12.2719 20.0556 12.9009 18.0899L7.94738 14.2371C6.13898 17.8541 5.5886 22.9647 7.94738 27.6824L12.9009 23.8297Z" fill="#FBBC02"/>
  <path d="M12.9008 18.0899C14.6306 12.6646 22.0215 9.51957 26.975 14.1585L31.2995 9.91266C25.1666 4.01571 13.2153 4.25152 7.94727 14.2371L12.9008 18.0899Z" fill="#EA4335"/>
</svg>