<svg xmlns="http://www.w3.org/2000/svg" width="20" height="20" viewBox="0 0 20 20" fill="none">
  <path d="M3.70881 11.5902L9.50266 17.0329C9.64781 17.1692 9.72038 17.2374 9.7993 17.272C9.92718 17.328 10.0727 17.328 10.2005 17.272C10.2795 17.2374 10.352 17.1692 10.4972 17.0329L16.291 11.5902C17.9212 10.0588 18.1191 7.53884 16.7481 5.77173L16.4903 5.43946C14.8502 3.32549 11.5579 3.68002 10.4055 6.09472C10.2427 6.43581 9.75716 6.43581 9.59436 6.09472C8.44189 3.68002 5.14969 3.3255 3.50954 5.43946L3.25174 5.77173C1.88071 7.53884 2.07867 10.0588 3.70881 11.5902Z" fill="white" stroke="white" stroke-width="2"/>
</svg>