<svg width="18" height="18" viewBox="0 0 24 24" fill="none" xmlns="http://www.w3.org/2000/svg">
<circle cx="12" cy="12" r="12" fill="rgba(23, 107, 135, 0.84)"/>
<path d="M17.125 11.5C17.125 10.3247 16.7569 9.17891 16.0723 8.22356C15.3877 7.26822 14.421 6.55131 13.3081 6.17352C12.1952 5.79573 10.9918 5.77604 9.86715 6.11721C8.74245 6.45838 7.75287 7.14328 7.03739 8.07572C6.32191 9.00815 5.91647 10.1413 5.87801 11.316C5.83956 12.4906 6.17002 13.6479 6.82298 14.6251C7.47595 15.6023 8.41862 16.3505 9.51859 16.7645C10.6186 17.1785 11.8206 17.2375 12.9559 16.9333" stroke="white" stroke-linecap="round"/>
<circle cx="11.5" cy="11.5" r="2.5" stroke="white"/>
<path d="M14 9.625V12.4375C14 13.3004 14.6996 14 15.5625 14V14C16.4254 14 17.125 13.3004 17.125 12.4375V11.5" stroke="white" stroke-linecap="round"/>
</svg>
