<svg width="18" height="18" viewBox="0 0 24 24" fill="none" xmlns="http://www.w3.org/2000/svg">
<circle cx="12" cy="12" r="12" fill="rgba(23, 107, 135, 0.84)"/>
<path d="M16.5492 13.6018L18.3637 15.4163C18.7151 15.7678 18.7151 16.3375 18.3637 16.6889C16.4638 18.5888 13.456 18.8026 11.3066 17.1905L11.1813 17.0965C9.55988 15.8804 8.11956 14.4401 6.90353 12.8187L6.80955 12.6934C5.19744 10.544 5.4112 7.53617 7.31108 5.63629C7.66249 5.28487 8.23224 5.28487 8.58365 5.63629L10.3982 7.45079C10.7887 7.84131 10.7887 8.47448 10.3982 8.865L9.13196 10.1312C8.896 10.3672 8.8375 10.7276 8.98674 11.0261C9.84944 12.7515 11.2485 14.1506 12.9739 15.0133C13.2724 15.1625 13.6328 15.104 13.8688 14.868L15.135 13.6018C15.5255 13.2113 16.1587 13.2113 16.5492 13.6018Z" fill="white"/>
</svg>
